<svg xmlns="http://www.w3.org/2000/svg" xmlns:xlink="http://www.w3.org/1999/xlink" version="1.1" x="0px" y="0px" viewBox="0 0 100 100" enable-background="new 0 0 100 100" xml:space="preserve"><g><path d="M69.305,12.982c-0.182-0.602-0.865-1.09-1.519-1.079l-23.08,4.598l-12.597-4.476c-0.656,0.011-1.34,0.5-1.522,1.103   l-8.312,27.883h55.45L69.305,12.982z M50,47.399c-16.569,0-31.79,3.618-43.755,9.669h87.51C81.778,51.017,66.569,47.399,50,47.399z    M67.795,61.084c-6.732,0-12.307,4.984-13.269,11.453c-2.99-0.663-6.085-0.667-9.076-0.015   c-1.032-6.388-6.569-11.288-13.244-11.288c-7.406,0-13.432,6.026-13.432,13.432c0,7.406,6.025,13.432,13.432,13.432   c6.76,0,12.354-5.025,13.282-11.533c2.968-0.797,6.092-0.785,9.055,0.037c1.007,6.417,6.558,11.346,13.253,11.346   c7.406,0,13.432-6.025,13.432-13.432C81.226,67.11,75.201,61.084,67.795,61.084z M32.205,84.491c-5.427,0-9.826-4.399-9.826-9.826   c0-5.427,4.399-9.826,9.826-9.826c5.427,0,9.826,4.399,9.826,9.826C42.031,80.092,37.632,84.491,32.205,84.491z M67.795,84.342   c-5.427,0-9.826-4.399-9.826-9.826c0-5.427,4.399-9.826,9.826-9.826c5.427,0,9.826,4.399,9.826,9.826   C77.62,79.943,73.221,84.342,67.795,84.342z"></path></g></svg>